<?xml version="1.0" standalone="no"?>
<!DOCTYPE svg PUBLIC "-//W3C//DTD SVG 20010904//EN"
 "http://www.w3.org/TR/2001/REC-SVG-20010904/DTD/svg10.dtd">
<svg version="1.0" xmlns="http://www.w3.org/2000/svg"
 width="200.000000pt" height="200.000000pt" viewBox="0 0 200.000000 200.000000"
 preserveAspectRatio="xMidYMid meet">

<g transform="translate(0.000000,200.000000) scale(0.100000,-0.100000)"
fill="#000000" stroke="none">
<path d="M958 1303 l-88 -4 0 -44 0 -45 75 0 c41 0 75 -2 75 -5 0 -3 -11 -33
-25 -67 -14 -34 -25 -63 -25 -65 0 -2 21 -3 48 -3 57 0 87 -18 102 -64 28 -85
-66 -153 -143 -103 -14 9 -28 30 -32 47 -6 28 -10 30 -51 30 -40 0 -44 -2 -44
-25 0 -71 75 -148 156 -161 117 -18 228 93 210 208 -9 54 -47 113 -86 133 -16
9 -30 17 -30 19 0 1 11 30 25 64 36 89 35 92 -27 90 -29 -1 -92 -4 -140 -5z"/>
<path d="M152 1026 c3 -154 12 -174 89 -214 77 -41 154 -19 207 58 20 30 22
45 22 161 l0 129 -45 0 -45 0 0 -118 c0 -106 -2 -121 -20 -137 -29 -26 -79
-24 -102 4 -15 20 -18 41 -18 137 l0 114 -46 0 -46 0 4 -134z"/>
<path d="M617 1139 c-71 -38 -112 -137 -87 -213 32 -99 146 -160 234 -126 23
8 26 15 26 59 l0 50 -36 -15 c-82 -34 -161 35 -132 116 19 55 97 79 146 44 22
-15 22 -15 22 39 0 48 -3 55 -22 61 -45 11 -113 5 -151 -15z"/>
<path d="M1290 975 l0 -185 45 0 45 0 0 114 c0 99 3 117 21 140 25 32 70 35
99 6 18 -18 20 -33 20 -140 l0 -120 50 0 50 0 0 120 c0 107 2 122 20 140 29
29 74 26 99 -6 18 -23 21 -41 21 -140 l0 -114 45 0 45 0 0 128 c0 145 -11 181
-70 220 -29 20 -44 23 -93 20 -41 -3 -64 -10 -79 -25 l-20 -21 -36 24 c-38 26
-116 33 -153 14 -13 -7 -19 -7 -19 0 0 5 -20 10 -45 10 l-45 0 0 -185z"/>
</g>
</svg>
